<mxfile host="app.diagrams.net" agent="Mozilla/5.0 (X11; Ubuntu; Linux x86_64; rv:131.0) Gecko/20100101 Firefox/131.0" version="25.0.3">
  <diagram name="Page-1" id="ZLXz8bZ7Lyy6NJfYawsl">
    <mxGraphModel dx="1535" dy="1893" grid="1" gridSize="10" guides="1" tooltips="1" connect="1" arrows="1" fold="1" page="1" pageScale="1" pageWidth="850" pageHeight="1100" math="0" shadow="0">
      <root>
        <mxCell id="0" />
        <mxCell id="1" parent="0" />
        <mxCell id="lkuB_7mltpB1Ut6H_fc4-70" value="" style="rounded=0;whiteSpace=wrap;html=1;strokeColor=none;" vertex="1" parent="1">
          <mxGeometry x="80" y="-120" width="950" height="610" as="geometry" />
        </mxCell>
        <mxCell id="lkuB_7mltpB1Ut6H_fc4-6" value="" style="rounded=0;whiteSpace=wrap;html=1;" vertex="1" parent="1">
          <mxGeometry x="115" y="-48.75" width="885" height="448.75" as="geometry" />
        </mxCell>
        <mxCell id="lkuB_7mltpB1Ut6H_fc4-40" style="edgeStyle=orthogonalEdgeStyle;rounded=0;orthogonalLoop=1;jettySize=auto;html=1;entryX=0;entryY=0.75;entryDx=0;entryDy=0;jumpStyle=arc;" edge="1" parent="1" source="XUwTfJBHHrVztobZP6dr-2" target="lkuB_7mltpB1Ut6H_fc4-32">
          <mxGeometry relative="1" as="geometry">
            <Array as="points">
              <mxPoint x="160" y="115" />
            </Array>
          </mxGeometry>
        </mxCell>
        <mxCell id="lkuB_7mltpB1Ut6H_fc4-41" style="edgeStyle=orthogonalEdgeStyle;rounded=0;orthogonalLoop=1;jettySize=auto;html=1;entryX=0;entryY=0.75;entryDx=0;entryDy=0;jumpStyle=arc;" edge="1" parent="1" source="XUwTfJBHHrVztobZP6dr-2" target="lkuB_7mltpB1Ut6H_fc4-38">
          <mxGeometry relative="1" as="geometry">
            <Array as="points">
              <mxPoint x="160" y="160" />
            </Array>
          </mxGeometry>
        </mxCell>
        <mxCell id="XUwTfJBHHrVztobZP6dr-2" value="vcutoff[7:0]" style="text;html=1;align=center;verticalAlign=middle;whiteSpace=wrap;rounded=0;rotation=-90;fontSize=14;" parent="1" vertex="1">
          <mxGeometry x="125" y="420" width="70" height="30" as="geometry" />
        </mxCell>
        <mxCell id="lkuB_7mltpB1Ut6H_fc4-51" style="edgeStyle=orthogonalEdgeStyle;rounded=0;orthogonalLoop=1;jettySize=auto;html=1;entryX=0;entryY=0.75;entryDx=0;entryDy=0;" edge="1" parent="1" source="XUwTfJBHHrVztobZP6dr-3" target="lkuB_7mltpB1Ut6H_fc4-49">
          <mxGeometry relative="1" as="geometry">
            <Array as="points">
              <mxPoint x="215" y="195" />
            </Array>
          </mxGeometry>
        </mxCell>
        <mxCell id="XUwTfJBHHrVztobZP6dr-3" value="vpreset[7:0]" style="text;html=1;align=center;verticalAlign=middle;whiteSpace=wrap;rounded=0;rotation=-90;fontSize=14;" parent="1" vertex="1">
          <mxGeometry x="175" y="426" width="80" height="27" as="geometry" />
        </mxCell>
        <mxCell id="XUwTfJBHHrVztobZP6dr-61" style="edgeStyle=orthogonalEdgeStyle;rounded=0;orthogonalLoop=1;jettySize=auto;html=1;entryX=0;entryY=0.75;entryDx=0;entryDy=0;jumpStyle=arc;" parent="1" source="XUwTfJBHHrVztobZP6dr-4" target="XUwTfJBHHrVztobZP6dr-45" edge="1">
          <mxGeometry relative="1" as="geometry">
            <Array as="points">
              <mxPoint x="270" y="235" />
            </Array>
          </mxGeometry>
        </mxCell>
        <mxCell id="XUwTfJBHHrVztobZP6dr-4" value="iend[7:0]" style="text;html=1;align=center;verticalAlign=middle;whiteSpace=wrap;rounded=0;rotation=-90;fontSize=14;" parent="1" vertex="1">
          <mxGeometry x="241.25" y="413.75" width="57.5" height="30" as="geometry" />
        </mxCell>
        <mxCell id="XUwTfJBHHrVztobZP6dr-39" style="edgeStyle=orthogonalEdgeStyle;rounded=0;orthogonalLoop=1;jettySize=auto;html=1;entryX=0.75;entryY=0;entryDx=0;entryDy=0;jumpStyle=arc;" parent="1" source="XUwTfJBHHrVztobZP6dr-5" target="XUwTfJBHHrVztobZP6dr-32" edge="1">
          <mxGeometry relative="1" as="geometry">
            <Array as="points">
              <mxPoint x="495" y="367" />
              <mxPoint x="495" y="275" />
              <mxPoint x="465" y="275" />
            </Array>
          </mxGeometry>
        </mxCell>
        <mxCell id="XUwTfJBHHrVztobZP6dr-5" value="&lt;div&gt;tempmax[7:0]&lt;/div&gt;" style="text;html=1;align=center;verticalAlign=middle;whiteSpace=wrap;rounded=0;rotation=-90;fontSize=14;" parent="1" vertex="1">
          <mxGeometry x="451.25" y="428.75" width="87.5" height="30" as="geometry" />
        </mxCell>
        <mxCell id="XUwTfJBHHrVztobZP6dr-57" style="edgeStyle=orthogonalEdgeStyle;rounded=0;orthogonalLoop=1;jettySize=auto;html=1;jumpStyle=arc;" parent="1" source="XUwTfJBHHrVztobZP6dr-6" target="XUwTfJBHHrVztobZP6dr-54" edge="1">
          <mxGeometry relative="1" as="geometry">
            <Array as="points">
              <mxPoint x="310" y="270" />
            </Array>
          </mxGeometry>
        </mxCell>
        <mxCell id="XUwTfJBHHrVztobZP6dr-6" value="&lt;div&gt;tmax[7:0]&lt;/div&gt;" style="text;html=1;align=center;verticalAlign=middle;whiteSpace=wrap;rounded=0;rotation=-90;fontSize=14;" parent="1" vertex="1">
          <mxGeometry x="280" y="415" width="60" height="30" as="geometry" />
        </mxCell>
        <mxCell id="XUwTfJBHHrVztobZP6dr-38" style="edgeStyle=orthogonalEdgeStyle;rounded=0;orthogonalLoop=1;jettySize=auto;html=1;entryX=0.25;entryY=0;entryDx=0;entryDy=0;jumpStyle=arc;" parent="1" source="XUwTfJBHHrVztobZP6dr-7" target="XUwTfJBHHrVztobZP6dr-31" edge="1">
          <mxGeometry relative="1" as="geometry">
            <Array as="points">
              <mxPoint x="362" y="368" />
              <mxPoint x="362" y="368" />
              <mxPoint x="362" y="275" />
              <mxPoint x="375" y="275" />
            </Array>
          </mxGeometry>
        </mxCell>
        <mxCell id="XUwTfJBHHrVztobZP6dr-7" value="&lt;div&gt;tempmin[7:0]&lt;/div&gt;" style="text;html=1;align=center;verticalAlign=middle;whiteSpace=wrap;rounded=0;rotation=-90;fontSize=14;" parent="1" vertex="1">
          <mxGeometry x="317.5" y="430.5" width="90" height="30" as="geometry" />
        </mxCell>
        <mxCell id="XUwTfJBHHrVztobZP6dr-58" style="edgeStyle=orthogonalEdgeStyle;rounded=0;orthogonalLoop=1;jettySize=auto;html=1;entryX=0.5;entryY=1;entryDx=0;entryDy=0;" parent="1" source="XUwTfJBHHrVztobZP6dr-8" target="XUwTfJBHHrVztobZP6dr-53" edge="1">
          <mxGeometry relative="1" as="geometry" />
        </mxCell>
        <mxCell id="XUwTfJBHHrVztobZP6dr-8" value="clk" style="text;html=1;align=center;verticalAlign=middle;whiteSpace=wrap;rounded=0;rotation=-90;fontSize=14;" parent="1" vertex="1">
          <mxGeometry x="530" y="395" width="20" height="30" as="geometry" />
        </mxCell>
        <mxCell id="XUwTfJBHHrVztobZP6dr-9" value="rstz" style="text;html=1;align=center;verticalAlign=middle;whiteSpace=wrap;rounded=0;rotation=-90;fontSize=14;" parent="1" vertex="1">
          <mxGeometry x="600" y="400" width="30" height="30" as="geometry" />
        </mxCell>
        <mxCell id="XUwTfJBHHrVztobZP6dr-10" value="en" style="text;html=1;align=center;verticalAlign=middle;whiteSpace=wrap;rounded=0;rotation=0;fontSize=14;" parent="1" vertex="1">
          <mxGeometry x="95" y="301" width="20" height="30" as="geometry" />
        </mxCell>
        <mxCell id="XUwTfJBHHrVztobZP6dr-11" value="se" style="text;html=1;align=center;verticalAlign=middle;whiteSpace=wrap;rounded=0;rotation=0;fontSize=14;" parent="1" vertex="1">
          <mxGeometry x="95" y="230" width="20" height="30" as="geometry" />
        </mxCell>
        <mxCell id="XUwTfJBHHrVztobZP6dr-12" value="si" style="text;html=1;align=center;verticalAlign=middle;whiteSpace=wrap;rounded=0;rotation=0;fontSize=14;" parent="1" vertex="1">
          <mxGeometry x="95" y="181.5" width="20" height="30" as="geometry" />
        </mxCell>
        <mxCell id="XUwTfJBHHrVztobZP6dr-13" value="vdd" style="text;html=1;align=center;verticalAlign=middle;whiteSpace=wrap;rounded=0;rotation=0;fontSize=14;" parent="1" vertex="1">
          <mxGeometry x="85" y="30" width="30" height="30" as="geometry" />
        </mxCell>
        <mxCell id="XUwTfJBHHrVztobZP6dr-15" value="tmonen" style="text;html=1;align=center;verticalAlign=middle;whiteSpace=wrap;rounded=0;rotation=-90;fontSize=14;" parent="1" vertex="1">
          <mxGeometry x="133.75" y="-90" width="52.5" height="30" as="geometry" />
        </mxCell>
        <mxCell id="XUwTfJBHHrVztobZP6dr-16" value="vmonen" style="text;html=1;align=center;verticalAlign=middle;whiteSpace=wrap;rounded=0;rotation=-90;fontSize=14;" parent="1" vertex="1">
          <mxGeometry x="270" y="-88.75" width="50" height="30" as="geometry" />
        </mxCell>
        <mxCell id="XUwTfJBHHrVztobZP6dr-17" value="imonen" style="text;html=1;align=center;verticalAlign=middle;whiteSpace=wrap;rounded=0;rotation=-90;fontSize=14;" parent="1" vertex="1">
          <mxGeometry x="200" y="-88.75" width="50" height="30" as="geometry" />
        </mxCell>
        <mxCell id="XUwTfJBHHrVztobZP6dr-36" style="edgeStyle=orthogonalEdgeStyle;rounded=0;orthogonalLoop=1;jettySize=auto;html=1;entryX=0.75;entryY=0;entryDx=0;entryDy=0;jumpStyle=arc;" parent="1" source="XUwTfJBHHrVztobZP6dr-18" target="XUwTfJBHHrVztobZP6dr-31" edge="1">
          <mxGeometry relative="1" as="geometry">
            <Array as="points">
              <mxPoint x="375" y="240" />
              <mxPoint x="395" y="240" />
            </Array>
          </mxGeometry>
        </mxCell>
        <mxCell id="XUwTfJBHHrVztobZP6dr-37" style="edgeStyle=orthogonalEdgeStyle;rounded=0;orthogonalLoop=1;jettySize=auto;html=1;entryX=0.25;entryY=0;entryDx=0;entryDy=0;jumpStyle=arc;" parent="1" source="XUwTfJBHHrVztobZP6dr-18" target="XUwTfJBHHrVztobZP6dr-32" edge="1">
          <mxGeometry relative="1" as="geometry">
            <Array as="points">
              <mxPoint x="375" y="240" />
              <mxPoint x="445" y="240" />
            </Array>
          </mxGeometry>
        </mxCell>
        <mxCell id="XUwTfJBHHrVztobZP6dr-18" value="tbat[7:0]" style="text;html=1;align=center;verticalAlign=middle;whiteSpace=wrap;rounded=0;rotation=-90;fontSize=14;" parent="1" vertex="1">
          <mxGeometry x="350" y="-90" width="50" height="30" as="geometry" />
        </mxCell>
        <mxCell id="lkuB_7mltpB1Ut6H_fc4-34" style="edgeStyle=orthogonalEdgeStyle;rounded=0;orthogonalLoop=1;jettySize=auto;html=1;entryX=0;entryY=0.25;entryDx=0;entryDy=0;" edge="1" parent="1" source="XUwTfJBHHrVztobZP6dr-19" target="lkuB_7mltpB1Ut6H_fc4-32">
          <mxGeometry relative="1" as="geometry">
            <Array as="points">
              <mxPoint x="415" y="95" />
            </Array>
          </mxGeometry>
        </mxCell>
        <mxCell id="lkuB_7mltpB1Ut6H_fc4-35" style="edgeStyle=orthogonalEdgeStyle;rounded=0;orthogonalLoop=1;jettySize=auto;html=1;entryX=0;entryY=0.25;entryDx=0;entryDy=0;jumpStyle=arc;" edge="1" parent="1" source="XUwTfJBHHrVztobZP6dr-19" target="lkuB_7mltpB1Ut6H_fc4-19">
          <mxGeometry relative="1" as="geometry">
            <Array as="points">
              <mxPoint x="415" y="10" />
            </Array>
          </mxGeometry>
        </mxCell>
        <mxCell id="lkuB_7mltpB1Ut6H_fc4-39" style="edgeStyle=orthogonalEdgeStyle;rounded=0;orthogonalLoop=1;jettySize=auto;html=1;entryX=0;entryY=0.25;entryDx=0;entryDy=0;jumpStyle=arc;" edge="1" parent="1" source="XUwTfJBHHrVztobZP6dr-19" target="lkuB_7mltpB1Ut6H_fc4-38">
          <mxGeometry relative="1" as="geometry">
            <Array as="points">
              <mxPoint x="415" y="140" />
            </Array>
          </mxGeometry>
        </mxCell>
        <mxCell id="lkuB_7mltpB1Ut6H_fc4-50" style="edgeStyle=orthogonalEdgeStyle;rounded=0;orthogonalLoop=1;jettySize=auto;html=1;entryX=0;entryY=0.25;entryDx=0;entryDy=0;jumpStyle=arc;" edge="1" parent="1" source="XUwTfJBHHrVztobZP6dr-19" target="lkuB_7mltpB1Ut6H_fc4-49">
          <mxGeometry relative="1" as="geometry">
            <Array as="points">
              <mxPoint x="415" y="175" />
            </Array>
          </mxGeometry>
        </mxCell>
        <mxCell id="XUwTfJBHHrVztobZP6dr-19" value="vbat[7:0]" style="text;html=1;align=center;verticalAlign=middle;whiteSpace=wrap;rounded=0;rotation=-90;fontSize=14;" parent="1" vertex="1">
          <mxGeometry x="390" y="-100" width="50" height="30" as="geometry" />
        </mxCell>
        <mxCell id="XUwTfJBHHrVztobZP6dr-59" style="edgeStyle=elbowEdgeStyle;rounded=0;orthogonalLoop=1;jettySize=auto;html=1;entryX=0;entryY=0.25;entryDx=0;entryDy=0;jumpStyle=arc;" parent="1" source="XUwTfJBHHrVztobZP6dr-20" target="XUwTfJBHHrVztobZP6dr-45" edge="1">
          <mxGeometry relative="1" as="geometry">
            <Array as="points">
              <mxPoint x="485" y="150" />
            </Array>
          </mxGeometry>
        </mxCell>
        <mxCell id="XUwTfJBHHrVztobZP6dr-20" value="ibat[7:0]" style="text;html=1;align=center;verticalAlign=middle;whiteSpace=wrap;rounded=0;rotation=-90;fontSize=14;" parent="1" vertex="1">
          <mxGeometry x="460" y="-88.75" width="50" height="30" as="geometry" />
        </mxCell>
        <mxCell id="XUwTfJBHHrVztobZP6dr-21" value="vtok" style="text;html=1;align=center;verticalAlign=middle;whiteSpace=wrap;rounded=0;rotation=-90;fontSize=14;" parent="1" vertex="1">
          <mxGeometry x="570" y="-78.75" width="30" height="30" as="geometry" />
        </mxCell>
        <mxCell id="XUwTfJBHHrVztobZP6dr-24" value="so" style="text;html=1;align=center;verticalAlign=middle;whiteSpace=wrap;rounded=0;rotation=0;fontSize=14;" parent="1" vertex="1">
          <mxGeometry x="1000" y="345.75" width="20" height="30" as="geometry" />
        </mxCell>
        <mxCell id="XUwTfJBHHrVztobZP6dr-25" value="gnd" style="text;html=1;align=center;verticalAlign=middle;whiteSpace=wrap;rounded=0;rotation=0;fontSize=14;" parent="1" vertex="1">
          <mxGeometry x="1000" y="30" width="30" height="30" as="geometry" />
        </mxCell>
        <mxCell id="XUwTfJBHHrVztobZP6dr-26" value="tc" style="text;html=1;align=center;verticalAlign=middle;whiteSpace=wrap;rounded=0;rotation=0;fontSize=14;" parent="1" vertex="1">
          <mxGeometry x="1000" y="115" width="20" height="30" as="geometry" />
        </mxCell>
        <mxCell id="XUwTfJBHHrVztobZP6dr-27" value="cc" style="text;html=1;align=center;verticalAlign=middle;whiteSpace=wrap;rounded=0;rotation=0;fontSize=14;" parent="1" vertex="1">
          <mxGeometry x="1000" y="152.5" width="20" height="30" as="geometry" />
        </mxCell>
        <mxCell id="XUwTfJBHHrVztobZP6dr-28" value="cv" style="text;html=1;align=center;verticalAlign=middle;whiteSpace=wrap;rounded=0;rotation=0;fontSize=14;" parent="1" vertex="1">
          <mxGeometry x="1000" y="197.5" width="20" height="30" as="geometry" />
        </mxCell>
        <mxCell id="XUwTfJBHHrVztobZP6dr-31" value="&lt;font style=&quot;font-size: 21px;&quot;&gt;&amp;lt;&lt;/font&gt;" style="rounded=0;whiteSpace=wrap;html=1;" parent="1" vertex="1">
          <mxGeometry x="365" y="295" width="40" height="40" as="geometry" />
        </mxCell>
        <mxCell id="XUwTfJBHHrVztobZP6dr-32" value="&lt;font style=&quot;font-size: 21px;&quot;&gt;&amp;gt;&lt;/font&gt;" style="rounded=0;whiteSpace=wrap;html=1;" parent="1" vertex="1">
          <mxGeometry x="435" y="295" width="40" height="40" as="geometry" />
        </mxCell>
        <mxCell id="XUwTfJBHHrVztobZP6dr-42" style="edgeStyle=orthogonalEdgeStyle;rounded=0;orthogonalLoop=1;jettySize=auto;html=1;" parent="1" source="XUwTfJBHHrVztobZP6dr-34" edge="1">
          <mxGeometry relative="1" as="geometry">
            <mxPoint x="490" y="375" as="targetPoint" />
          </mxGeometry>
        </mxCell>
        <mxCell id="XUwTfJBHHrVztobZP6dr-34" value="" style="shape=or;whiteSpace=wrap;html=1;" parent="1" vertex="1">
          <mxGeometry x="435" y="360" width="35" height="30" as="geometry" />
        </mxCell>
        <mxCell id="XUwTfJBHHrVztobZP6dr-89" style="edgeStyle=orthogonalEdgeStyle;rounded=0;orthogonalLoop=1;jettySize=auto;html=1;entryX=0;entryY=0.5;entryDx=0;entryDy=0;" parent="1" source="XUwTfJBHHrVztobZP6dr-35" target="lkuB_7mltpB1Ut6H_fc4-7" edge="1">
          <mxGeometry relative="1" as="geometry">
            <Array as="points">
              <mxPoint x="710" y="258" />
              <mxPoint x="710" y="208" />
              <mxPoint x="730" y="208" />
            </Array>
            <mxPoint x="730" y="240" as="targetPoint" />
          </mxGeometry>
        </mxCell>
        <mxCell id="XUwTfJBHHrVztobZP6dr-35" value="" style="shape=xor;whiteSpace=wrap;html=1;" parent="1" vertex="1">
          <mxGeometry x="660" y="240" width="40" height="35" as="geometry" />
        </mxCell>
        <mxCell id="XUwTfJBHHrVztobZP6dr-40" style="edgeStyle=orthogonalEdgeStyle;rounded=0;orthogonalLoop=1;jettySize=auto;html=1;entryX=0;entryY=0.25;entryDx=0;entryDy=0;entryPerimeter=0;jumpStyle=arc;" parent="1" source="XUwTfJBHHrVztobZP6dr-31" target="XUwTfJBHHrVztobZP6dr-34" edge="1">
          <mxGeometry relative="1" as="geometry">
            <Array as="points">
              <mxPoint x="388" y="368" />
            </Array>
          </mxGeometry>
        </mxCell>
        <mxCell id="XUwTfJBHHrVztobZP6dr-41" style="edgeStyle=orthogonalEdgeStyle;rounded=0;orthogonalLoop=1;jettySize=auto;html=1;entryX=0;entryY=0.75;entryDx=0;entryDy=0;entryPerimeter=0;jumpStyle=arc;" parent="1" source="XUwTfJBHHrVztobZP6dr-32" target="XUwTfJBHHrVztobZP6dr-34" edge="1">
          <mxGeometry relative="1" as="geometry" />
        </mxCell>
        <mxCell id="XUwTfJBHHrVztobZP6dr-43" value="&lt;div&gt;C&lt;sub&gt;0&lt;/sub&gt;&lt;/div&gt;" style="text;html=1;align=center;verticalAlign=middle;whiteSpace=wrap;rounded=0;rotation=0;" parent="1" vertex="1">
          <mxGeometry x="470" y="354" width="15" height="20" as="geometry" />
        </mxCell>
        <mxCell id="XUwTfJBHHrVztobZP6dr-45" value="&lt;font style=&quot;font-size: 21px;&quot;&gt;&amp;lt;&lt;/font&gt;" style="rounded=0;whiteSpace=wrap;html=1;" parent="1" vertex="1">
          <mxGeometry x="590" y="205" width="40" height="40" as="geometry" />
        </mxCell>
        <mxCell id="XUwTfJBHHrVztobZP6dr-47" style="edgeStyle=orthogonalEdgeStyle;rounded=0;orthogonalLoop=1;jettySize=auto;html=1;" parent="1" source="XUwTfJBHHrVztobZP6dr-46" target="XUwTfJBHHrVztobZP6dr-24" edge="1">
          <mxGeometry relative="1" as="geometry" />
        </mxCell>
        <mxCell id="XUwTfJBHHrVztobZP6dr-46" value="Scan Chain" style="rounded=0;whiteSpace=wrap;html=1;" parent="1" vertex="1">
          <mxGeometry x="930" y="340.75" width="40" height="40" as="geometry" />
        </mxCell>
        <mxCell id="XUwTfJBHHrVztobZP6dr-51" style="edgeStyle=orthogonalEdgeStyle;rounded=0;orthogonalLoop=1;jettySize=auto;html=1;exitX=0.5;exitY=1;exitDx=0;exitDy=0;entryX=0.5;entryY=0;entryDx=0;entryDy=0;" parent="1" source="XUwTfJBHHrVztobZP6dr-48" target="XUwTfJBHHrVztobZP6dr-46" edge="1">
          <mxGeometry relative="1" as="geometry" />
        </mxCell>
        <mxCell id="XUwTfJBHHrVztobZP6dr-48" value="se" style="text;html=1;align=center;verticalAlign=middle;whiteSpace=wrap;rounded=0;rotation=0;" parent="1" vertex="1">
          <mxGeometry x="940" y="309.25" width="20" height="17.5" as="geometry" />
        </mxCell>
        <mxCell id="XUwTfJBHHrVztobZP6dr-50" style="edgeStyle=orthogonalEdgeStyle;rounded=0;orthogonalLoop=1;jettySize=auto;html=1;entryX=0;entryY=0.5;entryDx=0;entryDy=0;" parent="1" source="XUwTfJBHHrVztobZP6dr-49" target="XUwTfJBHHrVztobZP6dr-46" edge="1">
          <mxGeometry relative="1" as="geometry" />
        </mxCell>
        <mxCell id="XUwTfJBHHrVztobZP6dr-49" value="si" style="text;html=1;align=center;verticalAlign=middle;whiteSpace=wrap;rounded=0;rotation=0;" parent="1" vertex="1">
          <mxGeometry x="890" y="350.75" width="20" height="20" as="geometry" />
        </mxCell>
        <mxCell id="XUwTfJBHHrVztobZP6dr-56" style="edgeStyle=orthogonalEdgeStyle;rounded=0;orthogonalLoop=1;jettySize=auto;html=1;entryX=0;entryY=0.75;entryDx=0;entryDy=0;" parent="1" source="XUwTfJBHHrVztobZP6dr-53" target="XUwTfJBHHrVztobZP6dr-54" edge="1">
          <mxGeometry relative="1" as="geometry">
            <Array as="points">
              <mxPoint x="570" y="320" />
              <mxPoint x="570" y="290" />
            </Array>
          </mxGeometry>
        </mxCell>
        <mxCell id="XUwTfJBHHrVztobZP6dr-53" value="Timer" style="rounded=0;whiteSpace=wrap;html=1;" parent="1" vertex="1">
          <mxGeometry x="520" y="300" width="40" height="40" as="geometry" />
        </mxCell>
        <mxCell id="XUwTfJBHHrVztobZP6dr-54" value="&lt;font style=&quot;font-size: 21px;&quot;&gt;&amp;lt;&lt;/font&gt;" style="rounded=0;whiteSpace=wrap;html=1;" parent="1" vertex="1">
          <mxGeometry x="590" y="260" width="40" height="40" as="geometry" />
        </mxCell>
        <mxCell id="XUwTfJBHHrVztobZP6dr-62" style="edgeStyle=orthogonalEdgeStyle;rounded=0;orthogonalLoop=1;jettySize=auto;html=1;entryX=0.175;entryY=0.25;entryDx=0;entryDy=0;entryPerimeter=0;" parent="1" source="XUwTfJBHHrVztobZP6dr-45" target="XUwTfJBHHrVztobZP6dr-35" edge="1">
          <mxGeometry relative="1" as="geometry" />
        </mxCell>
        <mxCell id="XUwTfJBHHrVztobZP6dr-63" style="edgeStyle=orthogonalEdgeStyle;rounded=0;orthogonalLoop=1;jettySize=auto;html=1;entryX=0.175;entryY=0.75;entryDx=0;entryDy=0;entryPerimeter=0;" parent="1" source="XUwTfJBHHrVztobZP6dr-54" target="XUwTfJBHHrVztobZP6dr-35" edge="1">
          <mxGeometry relative="1" as="geometry" />
        </mxCell>
        <mxCell id="XUwTfJBHHrVztobZP6dr-91" style="edgeStyle=orthogonalEdgeStyle;rounded=0;orthogonalLoop=1;jettySize=auto;html=1;entryX=0.5;entryY=0;entryDx=0;entryDy=0;" parent="1" source="XUwTfJBHHrVztobZP6dr-64" target="XUwTfJBHHrVztobZP6dr-72" edge="1">
          <mxGeometry relative="1" as="geometry" />
        </mxCell>
        <mxCell id="XUwTfJBHHrVztobZP6dr-64" value="" style="shape=or;whiteSpace=wrap;html=1;points=[[0,0.1,0,0,0],[0,0.3,0,0,0],[0,0.5,0,0,0],[0,0.7,0,0,0],[0,0.9,0,0,0],[0.7,0.1,0,0,0],[0.7,0.9,0,0,0],[1,0.5,0,0,0]];" parent="1" vertex="1">
          <mxGeometry x="840" y="142.5" width="40" height="50" as="geometry" />
        </mxCell>
        <mxCell id="XUwTfJBHHrVztobZP6dr-74" style="edgeStyle=orthogonalEdgeStyle;rounded=0;orthogonalLoop=1;jettySize=auto;html=1;entryX=0;entryY=0.5;entryDx=0;entryDy=0;" parent="1" source="XUwTfJBHHrVztobZP6dr-66" target="XUwTfJBHHrVztobZP6dr-72" edge="1">
          <mxGeometry relative="1" as="geometry" />
        </mxCell>
        <mxCell id="XUwTfJBHHrVztobZP6dr-88" style="edgeStyle=orthogonalEdgeStyle;rounded=0;orthogonalLoop=1;jettySize=auto;html=1;" parent="1" source="XUwTfJBHHrVztobZP6dr-66" target="XUwTfJBHHrVztobZP6dr-85" edge="1">
          <mxGeometry relative="1" as="geometry">
            <Array as="points">
              <mxPoint x="760" y="340" />
            </Array>
          </mxGeometry>
        </mxCell>
        <mxCell id="XUwTfJBHHrVztobZP6dr-66" value="State[7:0]" style="rounded=0;whiteSpace=wrap;html=1;" parent="1" vertex="1">
          <mxGeometry x="800" y="320" width="80" height="40" as="geometry" />
        </mxCell>
        <mxCell id="XUwTfJBHHrVztobZP6dr-75" style="edgeStyle=orthogonalEdgeStyle;rounded=0;orthogonalLoop=1;jettySize=auto;html=1;jumpStyle=arc;exitX=0.25;exitY=1;exitDx=0;exitDy=0;" parent="1" source="XUwTfJBHHrVztobZP6dr-72" target="XUwTfJBHHrVztobZP6dr-28" edge="1">
          <mxGeometry relative="1" as="geometry">
            <Array as="points">
              <mxPoint x="950" y="190" />
              <mxPoint x="980" y="190" />
              <mxPoint x="980" y="210" />
            </Array>
          </mxGeometry>
        </mxCell>
        <mxCell id="XUwTfJBHHrVztobZP6dr-76" style="edgeStyle=orthogonalEdgeStyle;rounded=0;orthogonalLoop=1;jettySize=auto;html=1;entryX=0;entryY=0.5;entryDx=0;entryDy=0;" parent="1" source="XUwTfJBHHrVztobZP6dr-72" target="XUwTfJBHHrVztobZP6dr-27" edge="1">
          <mxGeometry relative="1" as="geometry">
            <Array as="points" />
          </mxGeometry>
        </mxCell>
        <mxCell id="XUwTfJBHHrVztobZP6dr-80" style="edgeStyle=orthogonalEdgeStyle;rounded=0;orthogonalLoop=1;jettySize=auto;html=1;" parent="1" target="XUwTfJBHHrVztobZP6dr-26" edge="1">
          <mxGeometry relative="1" as="geometry">
            <mxPoint x="950" y="150" as="sourcePoint" />
            <Array as="points">
              <mxPoint x="980" y="150" />
              <mxPoint x="980" y="130" />
            </Array>
          </mxGeometry>
        </mxCell>
        <mxCell id="XUwTfJBHHrVztobZP6dr-82" style="edgeStyle=orthogonalEdgeStyle;rounded=0;orthogonalLoop=1;jettySize=auto;html=1;entryX=0;entryY=0.5;entryDx=0;entryDy=0;jumpStyle=arc;exitX=0.75;exitY=1;exitDx=0;exitDy=0;" parent="1" target="XUwTfJBHHrVztobZP6dr-15" edge="1" source="XUwTfJBHHrVztobZP6dr-72">
          <mxGeometry relative="1" as="geometry">
            <mxPoint x="950" y="215" as="sourcePoint" />
            <Array as="points">
              <mxPoint x="950" y="140" />
              <mxPoint x="960" y="140" />
              <mxPoint x="960" y="-10" />
              <mxPoint x="160" y="-10" />
            </Array>
          </mxGeometry>
        </mxCell>
        <mxCell id="XUwTfJBHHrVztobZP6dr-83" style="edgeStyle=orthogonalEdgeStyle;rounded=0;orthogonalLoop=1;jettySize=auto;html=1;entryX=0;entryY=0.5;entryDx=0;entryDy=0;exitX=0.75;exitY=1;exitDx=0;exitDy=0;jumpStyle=arc;" parent="1" source="XUwTfJBHHrVztobZP6dr-72" target="XUwTfJBHHrVztobZP6dr-17" edge="1">
          <mxGeometry relative="1" as="geometry">
            <Array as="points">
              <mxPoint x="950" y="130" />
              <mxPoint x="960" y="130" />
              <mxPoint x="960" y="-10" />
              <mxPoint x="225" y="-10" />
            </Array>
          </mxGeometry>
        </mxCell>
        <mxCell id="XUwTfJBHHrVztobZP6dr-84" style="edgeStyle=orthogonalEdgeStyle;rounded=0;orthogonalLoop=1;jettySize=auto;html=1;entryX=0;entryY=0.5;entryDx=0;entryDy=0;exitX=0.75;exitY=1;exitDx=0;exitDy=0;jumpStyle=arc;" parent="1" source="XUwTfJBHHrVztobZP6dr-72" target="XUwTfJBHHrVztobZP6dr-16" edge="1">
          <mxGeometry relative="1" as="geometry">
            <Array as="points">
              <mxPoint x="950" y="120" />
              <mxPoint x="960" y="120" />
              <mxPoint x="960" y="-10" />
              <mxPoint x="295" y="-10" />
            </Array>
          </mxGeometry>
        </mxCell>
        <mxCell id="XUwTfJBHHrVztobZP6dr-72" value="Output Mux" style="shape=trapezoid;perimeter=trapezoidPerimeter;whiteSpace=wrap;html=1;fixedSize=1;rotation=-90;" parent="1" vertex="1">
          <mxGeometry x="860" y="137.5" width="120" height="60" as="geometry" />
        </mxCell>
        <mxCell id="lkuB_7mltpB1Ut6H_fc4-8" style="edgeStyle=orthogonalEdgeStyle;rounded=0;orthogonalLoop=1;jettySize=auto;html=1;entryX=0.5;entryY=0;entryDx=0;entryDy=0;" edge="1" parent="1" source="XUwTfJBHHrVztobZP6dr-85" target="lkuB_7mltpB1Ut6H_fc4-11">
          <mxGeometry relative="1" as="geometry">
            <Array as="points">
              <mxPoint x="840" y="220" />
            </Array>
          </mxGeometry>
        </mxCell>
        <mxCell id="XUwTfJBHHrVztobZP6dr-85" value="&lt;div&gt;&lt;font style=&quot;font-size: 11px;&quot;&gt;Next&lt;br&gt;&lt;/font&gt;&lt;/div&gt;&lt;div&gt;&lt;font style=&quot;font-size: 11px;&quot;&gt;State &lt;br&gt;&lt;/font&gt;&lt;/div&gt;&lt;div&gt;&lt;font style=&quot;font-size: 11px;&quot;&gt;Logic&lt;/font&gt;&lt;/div&gt;" style="shape=trapezoid;perimeter=trapezoidPerimeter;whiteSpace=wrap;html=1;fixedSize=1;direction=south;" parent="1" vertex="1">
          <mxGeometry x="730" y="50" width="60" height="225" as="geometry" />
        </mxCell>
        <mxCell id="XUwTfJBHHrVztobZP6dr-90" style="edgeStyle=orthogonalEdgeStyle;rounded=0;orthogonalLoop=1;jettySize=auto;html=1;entryX=0;entryY=0.5;entryDx=0;entryDy=0;entryPerimeter=0;" parent="1" source="XUwTfJBHHrVztobZP6dr-85" target="XUwTfJBHHrVztobZP6dr-64" edge="1">
          <mxGeometry relative="1" as="geometry">
            <Array as="points">
              <mxPoint x="815" y="168" />
            </Array>
          </mxGeometry>
        </mxCell>
        <mxCell id="XUwTfJBHHrVztobZP6dr-92" value="&lt;font style=&quot;font-size: 9px;&quot;&gt;en&lt;/font&gt;" style="text;html=1;align=center;verticalAlign=middle;whiteSpace=wrap;rounded=0;rotation=0;" parent="1" vertex="1">
          <mxGeometry x="795" y="181.5" width="10" height="11" as="geometry" />
        </mxCell>
        <mxCell id="XUwTfJBHHrVztobZP6dr-96" style="edgeStyle=orthogonalEdgeStyle;rounded=0;orthogonalLoop=1;jettySize=auto;html=1;entryX=0;entryY=0.9;entryDx=0;entryDy=0;entryPerimeter=0;" parent="1" source="XUwTfJBHHrVztobZP6dr-92" target="XUwTfJBHHrVztobZP6dr-64" edge="1">
          <mxGeometry relative="1" as="geometry">
            <Array as="points">
              <mxPoint x="810" y="188" />
            </Array>
          </mxGeometry>
        </mxCell>
        <mxCell id="XUwTfJBHHrVztobZP6dr-97" value="&lt;font style=&quot;font-size: 9px;&quot;&gt;rstz&lt;/font&gt;" style="text;html=1;align=center;verticalAlign=middle;whiteSpace=wrap;rounded=0;rotation=0;" parent="1" vertex="1">
          <mxGeometry x="790" y="139.5" width="20" height="15" as="geometry" />
        </mxCell>
        <mxCell id="XUwTfJBHHrVztobZP6dr-99" value="&lt;font style=&quot;font-size: 9px;&quot;&gt;vtok&lt;/font&gt;" style="text;html=1;align=center;verticalAlign=middle;whiteSpace=wrap;rounded=0;rotation=0;" parent="1" vertex="1">
          <mxGeometry x="790" y="172.5" width="20" height="10" as="geometry" />
        </mxCell>
        <mxCell id="XUwTfJBHHrVztobZP6dr-101" value="&lt;font style=&quot;font-size: 9px;&quot;&gt;!se&lt;/font&gt;" style="text;html=1;align=center;verticalAlign=middle;whiteSpace=wrap;rounded=0;rotation=0;" parent="1" vertex="1">
          <mxGeometry x="790" y="152.5" width="20" height="7.5" as="geometry" />
        </mxCell>
        <mxCell id="XUwTfJBHHrVztobZP6dr-102" style="edgeStyle=orthogonalEdgeStyle;rounded=0;orthogonalLoop=1;jettySize=auto;html=1;entryX=0;entryY=0.3;entryDx=0;entryDy=0;entryPerimeter=0;" parent="1" source="XUwTfJBHHrVztobZP6dr-101" target="XUwTfJBHHrVztobZP6dr-64" edge="1">
          <mxGeometry relative="1" as="geometry">
            <Array as="points">
              <mxPoint x="810" y="157" />
              <mxPoint x="840" y="157" />
            </Array>
          </mxGeometry>
        </mxCell>
        <mxCell id="lkuB_7mltpB1Ut6H_fc4-4" style="edgeStyle=orthogonalEdgeStyle;rounded=0;orthogonalLoop=1;jettySize=auto;html=1;entryX=0;entryY=0.7;entryDx=0;entryDy=0;entryPerimeter=0;" edge="1" parent="1" source="XUwTfJBHHrVztobZP6dr-99" target="XUwTfJBHHrVztobZP6dr-64">
          <mxGeometry relative="1" as="geometry" />
        </mxCell>
        <mxCell id="lkuB_7mltpB1Ut6H_fc4-5" style="edgeStyle=orthogonalEdgeStyle;rounded=0;orthogonalLoop=1;jettySize=auto;html=1;entryX=0;entryY=0.1;entryDx=0;entryDy=0;entryPerimeter=0;" edge="1" parent="1" source="XUwTfJBHHrVztobZP6dr-97" target="XUwTfJBHHrVztobZP6dr-64">
          <mxGeometry relative="1" as="geometry" />
        </mxCell>
        <mxCell id="lkuB_7mltpB1Ut6H_fc4-7" value="&lt;font style=&quot;font-size: 9px;&quot;&gt;C&lt;sub&gt;5&lt;/sub&gt; OR C&lt;sub&gt;6&lt;/sub&gt;&lt;/font&gt;" style="text;html=1;align=center;verticalAlign=middle;whiteSpace=wrap;rounded=0;" vertex="1" parent="1">
          <mxGeometry x="730" y="197.5" width="50" height="20" as="geometry" />
        </mxCell>
        <mxCell id="lkuB_7mltpB1Ut6H_fc4-13" style="edgeStyle=orthogonalEdgeStyle;rounded=0;orthogonalLoop=1;jettySize=auto;html=1;" edge="1" parent="1" source="lkuB_7mltpB1Ut6H_fc4-11" target="XUwTfJBHHrVztobZP6dr-66">
          <mxGeometry relative="1" as="geometry" />
        </mxCell>
        <mxCell id="lkuB_7mltpB1Ut6H_fc4-11" value="&lt;div&gt;Next&lt;/div&gt;&lt;div&gt;State[7:0]&lt;/div&gt;" style="rounded=0;whiteSpace=wrap;html=1;" vertex="1" parent="1">
          <mxGeometry x="800" y="247.5" width="80" height="40" as="geometry" />
        </mxCell>
        <mxCell id="lkuB_7mltpB1Ut6H_fc4-14" value="&lt;div&gt;C&lt;sub&gt;0&lt;/sub&gt;&lt;/div&gt;" style="text;html=1;align=center;verticalAlign=middle;whiteSpace=wrap;rounded=0;rotation=0;" vertex="1" parent="1">
          <mxGeometry x="685" y="70" width="15" height="20" as="geometry" />
        </mxCell>
        <mxCell id="lkuB_7mltpB1Ut6H_fc4-15" style="edgeStyle=orthogonalEdgeStyle;rounded=0;orthogonalLoop=1;jettySize=auto;html=1;" edge="1" parent="1" source="lkuB_7mltpB1Ut6H_fc4-14">
          <mxGeometry relative="1" as="geometry">
            <mxPoint x="730" y="80" as="targetPoint" />
          </mxGeometry>
        </mxCell>
        <mxCell id="lkuB_7mltpB1Ut6H_fc4-16" value="&lt;div&gt;&lt;font style=&quot;font-size: 9px;&quot;&gt;C&lt;sub&gt;0&lt;/sub&gt;&lt;/font&gt;&lt;/div&gt;" style="text;html=1;align=center;verticalAlign=middle;whiteSpace=wrap;rounded=0;rotation=0;" vertex="1" parent="1">
          <mxGeometry x="731" y="70" width="15" height="20" as="geometry" />
        </mxCell>
        <mxCell id="lkuB_7mltpB1Ut6H_fc4-21" style="edgeStyle=orthogonalEdgeStyle;rounded=0;orthogonalLoop=1;jettySize=auto;html=1;" edge="1" parent="1" source="lkuB_7mltpB1Ut6H_fc4-19">
          <mxGeometry relative="1" as="geometry">
            <mxPoint x="730" y="100" as="targetPoint" />
            <Array as="points">
              <mxPoint x="540" y="100" />
            </Array>
          </mxGeometry>
        </mxCell>
        <mxCell id="lkuB_7mltpB1Ut6H_fc4-19" value="&lt;font style=&quot;font-size: 21px;&quot;&gt;&amp;lt;&lt;/font&gt;" style="rounded=0;whiteSpace=wrap;html=1;" vertex="1" parent="1">
          <mxGeometry x="520" width="40" height="40" as="geometry" />
        </mxCell>
        <mxCell id="lkuB_7mltpB1Ut6H_fc4-22" value="&lt;div&gt;&lt;font style=&quot;font-size: 9px;&quot;&gt;C&lt;sub&gt;1&lt;/sub&gt;&lt;/font&gt;&lt;/div&gt;" style="text;html=1;align=center;verticalAlign=middle;whiteSpace=wrap;rounded=0;rotation=0;" vertex="1" parent="1">
          <mxGeometry x="731" y="90" width="15" height="20" as="geometry" />
        </mxCell>
        <mxCell id="lkuB_7mltpB1Ut6H_fc4-29" style="edgeStyle=orthogonalEdgeStyle;rounded=0;orthogonalLoop=1;jettySize=auto;html=1;entryX=0;entryY=0.75;entryDx=0;entryDy=0;exitX=1;exitY=0.5;exitDx=0;exitDy=0;" edge="1" parent="1" source="lkuB_7mltpB1Ut6H_fc4-25" target="lkuB_7mltpB1Ut6H_fc4-19">
          <mxGeometry relative="1" as="geometry">
            <mxPoint x="510" y="100" as="sourcePoint" />
            <Array as="points" />
          </mxGeometry>
        </mxCell>
        <mxCell id="lkuB_7mltpB1Ut6H_fc4-25" value="4.2" style="text;html=1;align=center;verticalAlign=middle;whiteSpace=wrap;rounded=0;rotation=0;" vertex="1" parent="1">
          <mxGeometry x="485" y="20" width="20" height="20" as="geometry" />
        </mxCell>
        <mxCell id="lkuB_7mltpB1Ut6H_fc4-32" value="&lt;font style=&quot;font-size: 21px;&quot;&gt;&amp;lt;&lt;/font&gt;" style="rounded=0;whiteSpace=wrap;html=1;" vertex="1" parent="1">
          <mxGeometry x="435" y="85" width="40" height="40" as="geometry" />
        </mxCell>
        <mxCell id="lkuB_7mltpB1Ut6H_fc4-36" style="edgeStyle=orthogonalEdgeStyle;rounded=0;orthogonalLoop=1;jettySize=auto;html=1;" edge="1" parent="1" source="lkuB_7mltpB1Ut6H_fc4-32">
          <mxGeometry relative="1" as="geometry">
            <mxPoint x="730" y="130" as="targetPoint" />
            <Array as="points">
              <mxPoint x="603" y="105" />
              <mxPoint x="603" y="130" />
            </Array>
          </mxGeometry>
        </mxCell>
        <mxCell id="lkuB_7mltpB1Ut6H_fc4-37" value="&lt;div&gt;&lt;font style=&quot;font-size: 9px;&quot;&gt;C&lt;sub&gt;3&lt;/sub&gt;&lt;/font&gt;&lt;/div&gt;" style="text;html=1;align=center;verticalAlign=middle;whiteSpace=wrap;rounded=0;rotation=0;" vertex="1" parent="1">
          <mxGeometry x="731" y="140" width="15" height="20" as="geometry" />
        </mxCell>
        <mxCell id="lkuB_7mltpB1Ut6H_fc4-38" value="&lt;font style=&quot;font-size: 21px;&quot;&gt;&amp;gt;&lt;/font&gt;" style="rounded=0;whiteSpace=wrap;html=1;" vertex="1" parent="1">
          <mxGeometry x="435" y="130" width="40" height="40" as="geometry" />
        </mxCell>
        <mxCell id="lkuB_7mltpB1Ut6H_fc4-42" style="edgeStyle=orthogonalEdgeStyle;rounded=0;orthogonalLoop=1;jettySize=auto;html=1;jumpStyle=arc;" edge="1" parent="1" source="lkuB_7mltpB1Ut6H_fc4-38">
          <mxGeometry relative="1" as="geometry">
            <mxPoint x="730" y="150" as="targetPoint" />
          </mxGeometry>
        </mxCell>
        <mxCell id="lkuB_7mltpB1Ut6H_fc4-45" value="&lt;div&gt;&lt;font style=&quot;font-size: 9px;&quot;&gt;C&lt;sub&gt;2&lt;/sub&gt;&lt;/font&gt;&lt;/div&gt;" style="text;html=1;align=center;verticalAlign=middle;whiteSpace=wrap;rounded=0;rotation=0;" vertex="1" parent="1">
          <mxGeometry x="731" y="120" width="15" height="20" as="geometry" />
        </mxCell>
        <mxCell id="lkuB_7mltpB1Ut6H_fc4-49" value="&lt;font style=&quot;font-size: 21px;&quot;&gt;&amp;gt;&lt;/font&gt;" style="rounded=0;whiteSpace=wrap;html=1;" vertex="1" parent="1">
          <mxGeometry x="520" y="165" width="40" height="40" as="geometry" />
        </mxCell>
        <mxCell id="lkuB_7mltpB1Ut6H_fc4-52" style="edgeStyle=orthogonalEdgeStyle;rounded=0;orthogonalLoop=1;jettySize=auto;html=1;entryX=0.601;entryY=0.984;entryDx=0;entryDy=0;entryPerimeter=0;" edge="1" parent="1" source="lkuB_7mltpB1Ut6H_fc4-49" target="XUwTfJBHHrVztobZP6dr-85">
          <mxGeometry relative="1" as="geometry" />
        </mxCell>
        <mxCell id="lkuB_7mltpB1Ut6H_fc4-53" value="&lt;div&gt;&lt;font style=&quot;font-size: 9px;&quot;&gt;C&lt;sub&gt;4&lt;/sub&gt;&lt;/font&gt;&lt;/div&gt;" style="text;html=1;align=center;verticalAlign=middle;whiteSpace=wrap;rounded=0;rotation=0;" vertex="1" parent="1">
          <mxGeometry x="731" y="175" width="15" height="20" as="geometry" />
        </mxCell>
        <mxCell id="lkuB_7mltpB1Ut6H_fc4-56" value="&lt;font style=&quot;font-size: 21px;&quot;&gt;&amp;lt;&lt;/font&gt;" style="rounded=0;whiteSpace=wrap;html=1;" vertex="1" parent="1">
          <mxGeometry x="672.5" y="305.75" width="40" height="40" as="geometry" />
        </mxCell>
        <mxCell id="lkuB_7mltpB1Ut6H_fc4-57" value="" style="triangle;whiteSpace=wrap;html=1;" vertex="1" parent="1">
          <mxGeometry x="800" y="325" width="10" height="30" as="geometry" />
        </mxCell>
        <mxCell id="lkuB_7mltpB1Ut6H_fc4-59" value="" style="triangle;whiteSpace=wrap;html=1;" vertex="1" parent="1">
          <mxGeometry x="800" y="252.5" width="10" height="30" as="geometry" />
        </mxCell>
        <mxCell id="lkuB_7mltpB1Ut6H_fc4-60" style="edgeStyle=orthogonalEdgeStyle;rounded=0;orthogonalLoop=1;jettySize=auto;html=1;entryX=0.844;entryY=0.991;entryDx=0;entryDy=0;entryPerimeter=0;" edge="1" parent="1" source="lkuB_7mltpB1Ut6H_fc4-56" target="XUwTfJBHHrVztobZP6dr-85">
          <mxGeometry relative="1" as="geometry">
            <Array as="points">
              <mxPoint x="720" y="326" />
              <mxPoint x="720" y="240" />
            </Array>
          </mxGeometry>
        </mxCell>
        <mxCell id="lkuB_7mltpB1Ut6H_fc4-62" style="edgeStyle=orthogonalEdgeStyle;rounded=0;orthogonalLoop=1;jettySize=auto;html=1;entryX=0;entryY=0.25;entryDx=0;entryDy=0;" edge="1" parent="1" source="lkuB_7mltpB1Ut6H_fc4-61" target="lkuB_7mltpB1Ut6H_fc4-56">
          <mxGeometry relative="1" as="geometry" />
        </mxCell>
        <mxCell id="lkuB_7mltpB1Ut6H_fc4-61" value="vbat[7:0]" style="text;html=1;align=center;verticalAlign=middle;whiteSpace=wrap;rounded=0;rotation=0;" vertex="1" parent="1">
          <mxGeometry x="585" y="301" width="50" height="30" as="geometry" />
        </mxCell>
        <mxCell id="lkuB_7mltpB1Ut6H_fc4-66" value="&lt;font style=&quot;font-size: 9px;&quot;&gt;C&lt;sub&gt;7&lt;/sub&gt;&lt;br&gt;&lt;/font&gt;" style="text;html=1;align=center;verticalAlign=middle;whiteSpace=wrap;rounded=0;" vertex="1" parent="1">
          <mxGeometry x="730" y="230" width="20" height="20" as="geometry" />
        </mxCell>
        <mxCell id="lkuB_7mltpB1Ut6H_fc4-68" style="edgeStyle=orthogonalEdgeStyle;rounded=0;orthogonalLoop=1;jettySize=auto;html=1;entryX=0;entryY=0.75;entryDx=0;entryDy=0;" edge="1" parent="1" source="lkuB_7mltpB1Ut6H_fc4-67" target="lkuB_7mltpB1Ut6H_fc4-56">
          <mxGeometry relative="1" as="geometry" />
        </mxCell>
        <mxCell id="lkuB_7mltpB1Ut6H_fc4-67" value="V&lt;sub&gt;recharge&lt;/sub&gt;" style="rounded=0;whiteSpace=wrap;html=1;" vertex="1" parent="1">
          <mxGeometry x="585" y="326.75" width="50" height="17" as="geometry" />
        </mxCell>
        <mxCell id="lkuB_7mltpB1Ut6H_fc4-71" value="Next state update" style="text;html=1;align=center;verticalAlign=middle;whiteSpace=wrap;rounded=0;fontSize=9;" vertex="1" parent="1">
          <mxGeometry x="790" y="206.25" width="80" height="12.5" as="geometry" />
        </mxCell>
      </root>
    </mxGraphModel>
  </diagram>
</mxfile>
